<svg width="249" height="51" viewBox="0 0 249 51" fill="none" xmlns="http://www.w3.org/2000/svg">
<path d="M44.0605 14.0137H50.0176V50H44.0605L31.9512 28.7109V17.4805L44.0605 38.8184V14.0137ZM23.9922 50V14.0137H29.9492V50H23.9922ZM80.5059 19.5801C80.3431 19.515 80.1478 19.401 79.9199 19.2383C79.6921 19.0755 79.3665 18.929 78.9434 18.7988C78.5202 18.6361 77.9831 18.5059 77.332 18.4082C76.681 18.3105 75.8509 18.2943 74.8418 18.3594V13.4277C76.2741 13.4603 77.7227 13.623 79.1875 13.916C80.6849 14.1764 81.8893 14.5996 82.8008 15.1855C82.6055 15.6087 82.3776 16.0807 82.1172 16.6016C81.8568 17.0898 81.6126 17.5618 81.3848 18.0176C81.1569 18.4408 80.9616 18.7988 80.7988 19.0918C80.6361 19.3848 80.5384 19.5475 80.5059 19.5801ZM63.6602 23.4863C63.6602 22.054 63.9043 20.7682 64.3926 19.6289C64.8809 18.4896 65.5319 17.4967 66.3457 16.6504C67.1921 15.7715 68.1686 15.0879 69.2754 14.5996C70.4147 14.0788 71.6029 13.737 72.8398 13.5742V18.7012C71.7982 19.0592 70.9355 19.694 70.252 20.6055C69.5684 21.4844 69.2266 22.3796 69.2266 23.291C69.2266 24.5605 69.5684 25.5859 70.252 26.3672C70.9355 27.1484 71.7982 27.832 72.8398 28.418V33.9844C71.7656 33.4635 70.6914 32.9102 69.6172 32.3242C68.543 31.7057 67.5664 30.9896 66.6875 30.1758C65.8086 29.362 65.0762 28.418 64.4902 27.3438C63.9368 26.2695 63.6602 24.9837 63.6602 23.4863ZM64.4414 43.4082C64.8971 43.6686 65.4668 43.929 66.1504 44.1895C66.8665 44.4173 67.599 44.6452 68.3477 44.873C69.0964 45.0684 69.8451 45.2311 70.5938 45.3613C71.3424 45.4915 72.0423 45.5566 72.6934 45.5566H72.8398V50.1953H72.7422C71.9609 50.1953 71.1471 50.1465 70.3008 50.0488C69.487 49.9837 68.6569 49.8535 67.8105 49.6582C66.9642 49.4629 66.1504 49.2025 65.3691 48.877C64.6204 48.5189 63.9694 48.0957 63.416 47.6074L64.4414 43.4082ZM74.8418 29.3945C75.916 29.8828 77.0065 30.4036 78.1133 30.957C79.2526 31.5104 80.278 32.194 81.1895 33.0078C82.1009 33.7891 82.8496 34.7493 83.4355 35.8887C84.0215 37.028 84.3145 38.444 84.3145 40.1367C84.3145 41.3086 84.0866 42.4479 83.6309 43.5547C83.2077 44.6615 82.5892 45.6706 81.7754 46.582C80.9941 47.4609 80.0176 48.2096 78.8457 48.8281C77.6738 49.4466 76.3392 49.8535 74.8418 50.0488V45.3613C77.5111 44.7103 78.8457 42.9362 78.8457 40.0391C78.8457 38.8997 78.4714 37.9557 77.7227 37.207C76.974 36.4583 76.0137 35.7585 74.8418 35.1074V29.3945ZM95.3691 14.0137H101.229V50H95.3691V14.0137ZM105.721 14.0137C107.251 14.0137 108.764 14.2578 110.262 14.7461C111.759 15.2344 113.094 15.9668 114.266 16.9434C115.47 17.9199 116.43 19.1081 117.146 20.5078C117.895 21.875 118.27 23.4212 118.27 25.1465C118.27 26.9694 117.96 28.6296 117.342 30.127C116.723 31.5918 115.861 32.8288 114.754 33.8379C113.647 34.847 112.312 35.6283 110.75 36.1816C109.188 36.735 107.462 37.0117 105.574 37.0117H103.23V32.7148H106.6C107.316 32.7148 108.016 32.6009 108.699 32.373C109.415 32.1126 110.066 31.7057 110.652 31.1523C111.238 30.599 111.71 29.834 112.068 28.8574C112.426 27.8483 112.605 26.6113 112.605 25.1465C112.605 24.5605 112.524 23.8932 112.361 23.1445C112.199 22.3633 111.857 21.6309 111.336 20.9473C110.848 20.2311 110.148 19.6452 109.236 19.1895C108.325 18.7012 107.12 18.457 105.623 18.457H103.23V14.0137H105.721ZM136.014 50H130.057V14.0137H136.014V50ZM149.9 14.0137H155.76V50H149.9V14.0137ZM174.314 50H168.113L161.326 36.9629C161.229 36.9629 161.115 36.9792 160.984 37.0117C160.887 37.0117 160.724 37.0117 160.496 37.0117C160.268 37.0117 159.926 37.0117 159.471 37.0117C159.048 37.0117 158.478 37.0117 157.762 37.0117V32.7148H161.082C161.798 32.7148 162.514 32.6009 163.23 32.373C163.947 32.1126 164.598 31.7057 165.184 31.1523C165.77 30.599 166.242 29.834 166.6 28.8574C166.958 27.8483 167.137 26.6113 167.137 25.1465C167.137 24.5605 167.055 23.8932 166.893 23.1445C166.73 22.3633 166.388 21.6309 165.867 20.9473C165.379 20.2311 164.679 19.6452 163.768 19.1895C162.856 18.7012 161.652 18.457 160.154 18.457H157.762V14.0137H160.252C161.782 14.0137 163.296 14.2578 164.793 14.7461C166.29 15.2344 167.625 15.9668 168.797 16.9434C170.001 17.9199 170.962 19.1081 171.678 20.5078C172.426 21.875 172.801 23.4212 172.801 25.1465C172.801 27.7507 172.199 29.9642 170.994 31.7871C169.79 33.61 168.162 34.9609 166.111 35.8398L174.314 50ZM216.717 50H210.662L201.336 23.0469L191.912 50H185.809L198.406 14.0625H204.217L216.717 50ZM204.559 38.5742L205.975 42.5293H196.648L198.016 38.5742H204.559Z" fill="white"/>
<rect opacity="0.8" width="11.7333" height="21.5111" transform="matrix(-1 0 0 1 11.7333 14)" fill="white"/>
<path d="M11.8072 8.5C11.8072 6.84314 10.464 5.5 8.80719 5.5H3.00006C1.34321 5.5 6.29425e-05 6.84315 6.29425e-05 8.5V11.9939H11.8072V8.5Z" fill="white"/>
<path d="M5.86673 50L10.9474 33.8667H0.786046L5.86673 50Z" fill="white"/>
</svg>
